<svg xmlns="http://www.w3.org/2000/svg" width="320" height="320" viewBox="0 0 320 320"><path fill="#FFF" d="M34.747 265.076v15.264h24.684c.515 2.254.615 4.506.615 6.76 0 2.256-.101 4.508-.615 6.758H34.747v23.148c-2.562.412-5.123.721-7.682.721-2.562 0-5.021-.309-7.581-.721v-65.758h42.919c.513 2.254.718 4.611.718 6.861 0 2.359-.205 4.611-.718 6.967H34.747zm65.411 3.176c-.102 5.02-1.535 9.73-4.301 13.213-1.845-.512-3.686-.717-5.838-.717-3.176 0-5.839.615-7.478 1.436v34.822c-2.458.412-5.121.617-7.684.617-2.561 0-5.017-.205-7.579-.617v-42.709c3.38-3.074 10.962-7.48 21.614-7.48 4.61-.001 8.398.515 11.266 1.435zm48.479 20.078v25.5a65.221 65.221 0 0 1-24.578 4.816c-13.931 0-22.022-5.326-22.022-15.979 0-10.24 8.807-15.463 21.202-15.367 3.891.105 7.271.516 10.242 1.436v-1.945c0-4.197-2.868-7.168-10.037-7.168-5.736 0-10.652 2.252-13.215 4.197-3.276-1.842-5.837-5.223-6.555-9.729 2.766-2.459 10.447-7.07 21.101-7.07 14.134 0 23.862 6.147 23.862 21.309zm-22.531 19.664c2.456 0 4.916-.41 7.374-1.129v-8.912c-2.458-.715-5.224-1.121-8.399-1.121-4.813 0-7.784 1.637-7.784 5.221 0 3.586 2.971 5.941 8.809 5.941zm27.992 4.608c.822-4.812 3.073-8.398 6.047-10.242 3.583 2.254 8.602 4.916 15.978 4.916 4.714 0 6.352-1.74 6.352-3.893 0-2.559-2.56-3.889-10.55-5.324-7.989-1.641-16.391-4.506-16.391-15.26 0-10.037 9.22-15.777 21.409-15.777 10.141 0 16.39 2.359 19.77 4.51-.614 4.916-2.561 8.498-5.328 10.652-3.278-1.844-8.705-3.586-14.236-3.586-4.815 0-7.068 1.025-7.068 3.482 0 2.459 2.15 3.379 9.835 4.814 9.627 1.637 17.719 4.816 17.719 15.363 0 10.139-7.784 16.494-22.022 16.494-10.964.001-18.337-3.485-21.515-6.149zm47.704-19.764c0-15.98 11.27-26.121 26.328-26.121 7.477 0 14.033 2.869 16.899 5.43-.921 4.096-4.097 8.396-7.887 10.754-2.049-1.846-4.916-3.381-8.604-3.381-7.478 0-11.37 5.635-11.37 13.111 0 7.271 3.586 13.312 11.473 13.312 4.713 0 7.274-1.639 9.425-3.584 3.79 1.844 6.556 5.43 7.783 10.037-3.482 3.176-9.424 6.355-17.311 6.355-16.491.001-26.736-9.526-26.736-25.913zm45.451-.106c0-15.67 11.268-26.016 26.736-26.016 15.467 0 26.526 10.141 26.526 26.016 0 15.568-11.265 25.914-26.734 25.914-15.465 0-26.528-9.835-26.528-25.914zm37.899 0c0-7.988-4.097-13.213-11.269-13.213-7.169 0-11.368 5.225-11.368 13.213 0 7.885 4.199 13.211 11.368 13.211 7.173 0 11.269-5.326 11.269-13.211zM181.068 80.742h-42.137v55.18c0 2.533-1.382 7.292-2.738 9.431L92.62 214.064c-3.1 4.889-3.472 10.493-.996 14.994 2.477 4.501 7.409 7.189 13.196 7.189h110.36c5.787 0 10.72-2.688 13.196-7.189 2.476-4.501 2.104-10.105-.996-14.994l-43.573-68.712c-1.356-2.139-2.738-6.898-2.738-9.431V80.742z"/><path fill="#967ADC" d="M218.907 219.438l-33.875-53.418h-50.064l-33.875 53.418c-2.364 3.729-.688 6.777 3.728 6.777H215.18c4.415 0 6.091-3.049 3.727-6.777zm-66.819-22.414c-4.46 0-8.066-3.561-8.066-7.969 0-4.433 3.606-8.007 8.066-8.007 4.471 0 8.068 3.574 8.068 8.007 0 4.409-3.597 7.969-8.068 7.969zm21.841 13.613c-2.986 0-5.376-2.375-5.376-5.326s2.39-5.337 5.376-5.337c2.972 0 5.394 2.386 5.394 5.337s-2.423 5.326-5.394 5.326z"/><path d="M170.211 25.42c6.716 0 12.204-5.396 12.204-12.074S176.96 1.248 170.234 1.248c-6.754 0-12.227 5.396-12.227 12.074.001 6.678 5.462 12.098 12.204 12.098m-13.679 34.801c3.95.023 7.159-3.151 7.159-7.089 0-3.915-3.174-7.09-7.159-7.113-3.974 0-7.184 3.174-7.184 7.113.001 3.938 3.211 7.089 7.184 7.089m15.114-19.164c0 4.691 3.848 8.5 8.597 8.524 4.735 0 8.568-3.809 8.568-8.5 0-4.679-3.81-8.488-8.568-8.488-4.75-.036-8.597 3.785-8.597 8.464" fill="#AC92EC"/></svg>