<?xml version="1.0" encoding="utf-8"?>
<!-- Generator: Adobe Illustrator 16.0.4, SVG Export Plug-In . SVG Version: 6.00 Build 0)  -->
<!DOCTYPE svg PUBLIC "-//W3C//DTD SVG 1.1//EN" "http://www.w3.org/Graphics/SVG/1.1/DTD/svg11.dtd">
<svg version="1.1" id="artboard" xmlns="http://www.w3.org/2000/svg" xmlns:xlink="http://www.w3.org/1999/xlink" x="0px" y="0px"
	 width="320px" height="320px" viewBox="0 0 320 320" enable-background="new 0 0 320 320" xml:space="preserve">
<g id="frasco">
	<g id="logo">
		<g>
			<path fill="#FFFFFF" d="M34.747,265.076v15.264h24.684c0.515,2.254,0.615,4.506,0.615,6.76c0,2.256-0.101,4.508-0.615,6.758
				H34.747v23.148c-2.562,0.412-5.123,0.721-7.682,0.721c-2.562,0-5.021-0.309-7.581-0.721v-65.758h42.919
				c0.513,2.254,0.718,4.611,0.718,6.861c0,2.359-0.205,4.611-0.718,6.967H34.747z"/>
		</g>
		<g>
			<path fill="#FFFFFF" d="M100.158,268.252c-0.102,5.02-1.535,9.73-4.301,13.213c-1.845-0.512-3.686-0.717-5.838-0.717
				c-3.176,0-5.839,0.615-7.478,1.436v34.822c-2.458,0.412-5.121,0.617-7.684,0.617c-2.561,0-5.017-0.205-7.579-0.617v-42.709
				c3.38-3.074,10.962-7.48,21.614-7.48C93.502,266.816,97.29,267.332,100.158,268.252z"/>
		</g>
		<g>
			<path fill="#FFFFFF" d="M148.637,288.33v25.5c-7.27,2.973-15.668,4.816-24.578,4.816c-13.931,0-22.022-5.326-22.022-15.979
				c0-10.24,8.807-15.463,21.202-15.367c3.891,0.105,7.271,0.516,10.242,1.436v-1.945c0-4.197-2.868-7.168-10.037-7.168
				c-5.736,0-10.652,2.252-13.215,4.197c-3.276-1.842-5.837-5.223-6.555-9.729c2.766-2.459,10.447-7.07,21.101-7.07
				C138.909,267.021,148.637,273.168,148.637,288.33z M126.106,307.994c2.456,0,4.916-0.41,7.374-1.129v-8.912
				c-2.458-0.715-5.224-1.121-8.399-1.121c-4.813,0-7.784,1.637-7.784,5.221C117.297,305.639,120.268,307.994,126.106,307.994z"/>
		</g>
		<g>
			<path fill="#FFFFFF" d="M154.098,312.602c0.822-4.812,3.073-8.398,6.047-10.242c3.583,2.254,8.602,4.916,15.978,4.916
				c4.714,0,6.352-1.74,6.352-3.893c0-2.559-2.56-3.889-10.55-5.324c-7.989-1.641-16.391-4.506-16.391-15.26
				c0-10.037,9.22-15.777,21.409-15.777c10.141,0,16.39,2.359,19.77,4.51c-0.614,4.916-2.561,8.498-5.328,10.652
				c-3.278-1.844-8.705-3.586-14.236-3.586c-4.815,0-7.068,1.025-7.068,3.482c0,2.459,2.15,3.379,9.835,4.814
				c9.627,1.637,17.719,4.816,17.719,15.363c0,10.139-7.784,16.494-22.022,16.494C164.649,318.752,157.276,315.266,154.098,312.602z
				"/>
		</g>
		<g>
			<path fill="#FFFFFF" d="M201.802,292.838c0-15.98,11.27-26.121,26.328-26.121c7.477,0,14.033,2.869,16.899,5.43
				c-0.921,4.096-4.097,8.396-7.887,10.754c-2.049-1.846-4.916-3.381-8.604-3.381c-7.478,0-11.37,5.635-11.37,13.111
				c0,7.271,3.586,13.312,11.473,13.312c4.713,0,7.274-1.639,9.425-3.584c3.79,1.844,6.556,5.43,7.783,10.037
				c-3.482,3.176-9.424,6.355-17.311,6.355C212.047,318.752,201.802,309.225,201.802,292.838z"/>
		</g>
		<g>
			<path fill="#FFFFFF" d="M247.253,292.732c0-15.67,11.268-26.016,26.736-26.016c15.467,0,26.526,10.141,26.526,26.016
				c0,15.568-11.265,25.914-26.734,25.914C258.316,318.646,247.253,308.811,247.253,292.732z M285.152,292.732
				c0-7.988-4.097-13.213-11.269-13.213c-7.169,0-11.368,5.225-11.368,13.213c0,7.885,4.199,13.211,11.368,13.211
				C281.056,305.943,285.152,300.617,285.152,292.732z"/>
		</g>
	</g>
	<g id="icon">
		<g>
			<path fill="#FFFFFF" d="M181.068,80.742h-42.137v55.18c0,2.533-1.382,7.292-2.738,9.431L92.62,214.064
				c-3.1,4.889-3.472,10.493-0.996,14.994c2.477,4.501,7.409,7.189,13.196,7.189H215.18c5.787,0,10.72-2.688,13.196-7.189
				c2.476-4.501,2.104-10.105-0.996-14.994l-43.573-68.712c-1.356-2.139-2.738-6.898-2.738-9.431V80.742z"/>
			<path fill="#967ADC" d="M218.907,219.438l-33.875-53.418h-50.064l-33.875,53.418c-2.364,3.729-0.688,6.777,3.728,6.777H215.18
				C219.595,226.215,221.271,223.166,218.907,219.438z M152.088,197.024c-4.46,0-8.066-3.561-8.066-7.969
				c0-4.433,3.606-8.007,8.066-8.007c4.471,0,8.068,3.574,8.068,8.007C160.156,193.464,156.559,197.024,152.088,197.024z
				 M173.929,210.637c-2.986,0-5.376-2.375-5.376-5.326s2.39-5.337,5.376-5.337c2.972,0,5.394,2.386,5.394,5.337
				S176.9,210.637,173.929,210.637z"/>
		</g>
		<g>
			<path fill="#AC92EC" d="M170.211,25.42c6.716,0,12.204-5.396,12.204-12.074c0-6.678-5.455-12.098-12.181-12.098
				c-6.754,0-12.227,5.396-12.227,12.074C158.008,20,163.469,25.42,170.211,25.42"/>
			<path fill="#AC92EC" d="M156.532,60.221c3.95,0.023,7.159-3.151,7.159-7.089c0-3.915-3.174-7.09-7.159-7.113
				c-3.974,0-7.184,3.174-7.184,7.113C149.349,57.07,152.559,60.221,156.532,60.221"/>
			<path fill="#AC92EC" d="M171.646,41.057c0,4.691,3.848,8.5,8.597,8.524c4.735,0,8.568-3.809,8.568-8.5
				c0-4.679-3.81-8.488-8.568-8.488C175.493,32.557,171.646,36.378,171.646,41.057"/>
		</g>
	</g>
</g>
</svg>
